<svg width="16" height="16" viewBox="0 0 16 16" fill="none" xmlns="http://www.w3.org/2000/svg">
<path d="M14.8704 0H1.20698C0.982313 0 0.766845 0.0929672 0.607979 0.25845C0.449113 0.423932 0.359863 0.648375 0.359863 0.882403V15.1162C0.359863 15.3503 0.449113 15.5747 0.607979 15.7402C0.766845 15.9057 0.982313 15.9986 1.20698 15.9986H8.55998V9.80417H6.56078V7.38911H8.55998V5.60801C8.55998 3.54183 9.77201 2.41643 11.5418 2.41643C12.1391 2.41421 12.736 2.44593 13.3299 2.51145V4.67131H12.1061C11.143 4.67131 10.9567 5.1478 10.9567 5.84694V7.38911H13.2517L12.9533 9.80417H10.9567V16H14.8665C15.091 15.9996 15.3063 15.9066 15.4651 15.7412C15.6239 15.5757 15.7132 15.3515 15.7136 15.1176V0.88376C15.7139 0.650201 15.6254 0.426026 15.4673 0.260366C15.3092 0.0947067 15.0946 0.00107769 14.8704 0Z" fill="white"/>
</svg>
