<svg width="17" height="16" viewBox="0 0 17 16" fill="none" xmlns="http://www.w3.org/2000/svg">
<path fill-rule="evenodd" clip-rule="evenodd" d="M8.58828 0C4.23993 0 0.713867 3.67218 0.713867 8.20254C0.713867 11.8268 2.97013 14.9013 6.09887 15.986C6.49228 16.0621 6.63676 15.8081 6.63676 15.5914C6.63676 15.3959 6.62946 14.7497 6.62607 14.0643C4.4354 14.5605 3.97314 13.0965 3.97314 13.0965C3.61494 12.1484 3.09883 11.8963 3.09883 11.8963C2.38425 11.3872 3.15268 11.3978 3.15268 11.3978C3.94328 11.4555 4.35977 12.2431 4.35977 12.2431C5.06209 13.4968 6.20188 13.1344 6.65123 12.925C6.72191 12.3948 6.92598 12.0328 7.15118 11.828C5.40216 11.6208 3.56343 10.9174 3.56343 7.7744C3.56343 6.87887 3.87117 6.14715 4.37489 5.57259C4.293 5.36612 4.02347 4.53185 4.45104 3.40201C4.45104 3.40201 5.11216 3.18156 6.61694 4.2428C7.24519 4.06093 7.91895 3.96951 8.58828 3.96639C9.25722 3.96951 9.93137 4.06066 10.5608 4.24253C12.0638 3.18129 12.7241 3.40174 12.7241 3.40174C13.1527 4.53144 12.8832 5.36585 12.8014 5.57231C13.3063 6.14688 13.6118 6.8786 13.6118 7.77413C13.6118 10.9246 11.7697 11.6181 10.0163 11.8213C10.2988 12.0759 10.5505 12.5752 10.5505 13.3403C10.5505 14.4378 10.5414 15.3211 10.5414 15.5913C10.5414 15.8096 10.6832 16.0654 11.0823 15.9848C14.2092 14.899 16.4628 11.8254 16.4628 8.20254C16.4627 3.67245 12.937 0.000135821 8.58828 0.000135821V0Z" fill="white"/>
</svg>
