<svg width="17" height="16" viewBox="0 0 17 16" fill="none" xmlns="http://www.w3.org/2000/svg">
<g clip-path="url(#clip0)">
<path d="M16.2895 9.0225L15.4103 6.35882L13.6677 1.07956C13.5782 0.808114 13.1877 0.808114 13.0982 1.07956L11.3557 6.35882H5.56967L3.82717 1.07956C3.73754 0.808114 3.34717 0.808114 3.25754 1.07956L1.51517 6.35894L0.635794 9.0225C0.596683 9.14092 0.596662 9.2685 0.635734 9.38694C0.674806 9.50537 0.750964 9.60859 0.853294 9.6818L8.46267 15.1239L16.0719 9.68168C16.1742 9.60847 16.2503 9.50527 16.2894 9.38686C16.3285 9.26845 16.3285 9.14091 16.2894 9.0225" fill="white"/>
<path d="M8.46258 15.124L11.3556 6.35913H5.56958L8.46258 15.1239V15.124Z" fill="white"/>
<path d="M8.46264 15.124L5.56964 6.35913H1.51514L8.46264 15.1239V15.124Z" fill="white"/>
<path d="M1.51506 6.35889L0.635561 9.02257C0.59644 9.14098 0.596414 9.26854 0.635488 9.38696C0.674561 9.50538 0.750726 9.60858 0.853061 9.68175L8.46256 15.1239L1.51506 6.35901V6.35889Z" fill="white"/>
<path d="M1.51514 6.35882H5.56964L3.82714 1.07956C3.73751 0.808114 3.34714 0.808114 3.25751 1.07956L1.51514 6.35894V6.35882Z" fill="white"/>
<path d="M8.46265 15.124L11.3556 6.35913H15.4103L8.46265 15.1239V15.124Z" fill="white"/>
<path d="M15.4101 6.35889L16.2895 9.02257C16.3286 9.14098 16.3287 9.26854 16.2896 9.38696C16.2505 9.50538 16.1744 9.60858 16.072 9.68175L8.46265 15.1239L15.4101 6.35901V6.35889Z" fill="white"/>
<path d="M15.4101 6.35894H11.3557L13.0982 1.07981C13.1878 0.808358 13.5782 0.808358 13.6678 1.07981L15.4103 6.35906L15.4101 6.35894Z" fill="white"/>
</g>
<defs>
<clipPath id="clip0">
<rect width="16" height="15.7505" fill="white" transform="translate(0.462646 0.124756)"/>
</clipPath>
</defs>
</svg>
