<svg width="16" height="16" viewBox="0 0 16 16" fill="none" xmlns="http://www.w3.org/2000/svg">
<path d="M14.2269 6.05898e-05H1.13311C0.836026 -0.00308887 0.549871 0.116656 0.33744 0.333019C0.125009 0.549383 0.00365257 0.844693 0 1.15415V14.8485C0.00431312 15.1575 0.12596 15.4521 0.338319 15.6679C0.550678 15.8837 0.836457 16.0031 1.13311 15.9999H14.2269C14.524 16.0024 14.81 15.8822 15.0223 15.6657C15.2346 15.4492 15.356 15.154 15.36 14.8445V1.15022C15.3547 0.841666 15.2327 0.547764 15.0205 0.332393C14.8083 0.117023 14.5231 -0.0024078 14.2269 6.05898e-05Z" fill="white"/>
<path d="M2.27383 5.99738H4.55392V13.6394H2.27383V5.99738ZM3.4145 2.19409C3.67602 2.19409 3.93166 2.27489 4.14908 2.42626C4.36651 2.57763 4.53595 2.79277 4.63597 3.04447C4.73599 3.29617 4.76209 3.57312 4.71098 3.84028C4.65987 4.10743 4.53384 4.3528 4.34883 4.54533C4.16382 4.73786 3.92815 4.86891 3.67163 4.9219C3.41511 4.97488 3.14927 4.94742 2.90773 4.843C2.6662 4.73857 2.45982 4.56187 2.31471 4.33524C2.1696 4.10861 2.09228 3.84224 2.09253 3.56983C2.09286 3.20484 2.23229 2.85492 2.48017 2.59696C2.72805 2.33899 3.06411 2.19409 3.4145 2.19409Z" fill="black"/>
<path d="M5.98413 5.99719H8.16978V7.04638H8.19999C8.50468 6.44572 9.24749 5.81227 10.3567 5.81227C12.6657 5.80702 13.0938 7.38999 13.0938 9.44246V13.6392H10.8137V9.92115C10.8137 9.0359 10.7986 7.89622 9.62897 7.89622C8.45935 7.89622 8.26043 8.86147 8.26043 9.86345V13.6392H5.98413V5.99719Z" fill="black"/>
</svg>
